<svg width="22" height="17" viewBox="0 0 22 17" fill="none" xmlns="http://www.w3.org/2000/svg">
<path d="M10.9981 2.38128C8.50803 2.38128 6.46098 3.43842 4.89133 4.79914C3.42097 6.07771 2.40509 7.59556 1.88569 8.66699C2.40509 9.73842 3.42097 11.2563 4.88751 12.5348C6.46098 13.8956 8.50803 14.9527 10.9981 14.9527C13.4882 14.9527 15.5352 13.8956 17.1049 12.5348C18.5752 11.2563 19.5911 9.73842 20.1105 8.66699C19.5911 7.59556 18.5752 6.07771 17.1087 4.79914C15.5352 3.43842 13.4882 2.38128 10.9981 2.38128ZM3.64248 3.54556C5.44128 1.98128 7.91225 0.666992 10.9981 0.666992C14.0839 0.666992 16.5549 1.98128 18.3537 3.54556C20.141 5.09914 21.3364 6.95271 21.9055 8.22771C22.0315 8.50985 22.0315 8.82413 21.9055 9.10628C21.3364 10.3813 20.141 12.2384 18.3537 13.7884C16.5549 15.3527 14.0839 16.667 10.9981 16.667C7.91225 16.667 5.44128 15.3527 3.64248 13.7884C1.85513 12.2384 0.659752 10.3813 0.094523 9.10628C-0.0315077 8.82413 -0.0315077 8.50985 0.094523 8.22771C0.659752 6.95271 1.85513 5.09556 3.64248 3.54556ZM10.9981 11.5241C12.6861 11.5241 14.0534 10.2456 14.0534 8.66699C14.0534 7.08842 12.6861 5.80985 10.9981 5.80985C10.9714 5.80985 10.9484 5.80985 10.9217 5.80985C10.9714 5.99199 10.9981 6.18485 10.9981 6.38128C10.9981 7.64199 9.90201 8.66699 8.55386 8.66699C8.34381 8.66699 8.13757 8.64199 7.9428 8.59556C7.9428 8.62056 7.9428 8.64199 7.9428 8.66699C7.9428 10.2456 9.31004 11.5241 10.9981 11.5241ZM10.9981 4.09556C12.2946 4.09556 13.538 4.57719 14.4548 5.4345C15.3715 6.29181 15.8866 7.45457 15.8866 8.66699C15.8866 9.87941 15.3715 11.0422 14.4548 11.8995C13.538 12.7568 12.2946 13.2384 10.9981 13.2384C9.70159 13.2384 8.45819 12.7568 7.54142 11.8995C6.62466 11.0422 6.10963 9.87941 6.10963 8.66699C6.10963 7.45457 6.62466 6.29181 7.54142 5.4345C8.45819 4.57719 9.70159 4.09556 10.9981 4.09556Z" fill="#3955A8"/>
</svg>
