<svg width="30" height="22" viewBox="0 0 30 22" fill="none" xmlns="http://www.w3.org/2000/svg">
<path d="M28 12.3818C28.7632 12.3818 29.3818 11.7632 29.3818 11C29.3818 10.2368 28.7632 9.61818 28 9.61818V12.3818ZM1.02291 10.0229C0.483273 10.5625 0.483273 11.4375 1.02291 11.9771L9.81674 20.7709C10.3564 21.3106 11.2313 21.3106 11.7709 20.7709C12.3106 20.2313 12.3106 19.3564 11.7709 18.8167L3.95419 11L11.7709 3.18326C12.3106 2.64362 12.3106 1.7687 11.7709 1.22907C11.2313 0.689436 10.3564 0.689436 9.81674 1.22907L1.02291 10.0229ZM28 11V9.61818L2 9.61818V11V12.3818L28 12.3818V11Z" fill="#3C3D3F"/>
</svg>
