<svg width="37" height="38" viewBox="0 0 37 38" fill="none" xmlns="http://www.w3.org/2000/svg">
<rect y="0.333328" width="37" height="37" rx="18.5" fill="white"/>
<path d="M8 17.3333C7.44772 17.3333 7 17.781 7 18.3333C7 18.8856 7.44772 19.3333 8 19.3333L8 17.3333ZM28.7071 19.0404C29.0976 18.6499 29.0976 18.0167 28.7071 17.6262L22.3431 11.2623C21.9526 10.8717 21.3195 10.8717 20.9289 11.2623C20.5384 11.6528 20.5384 12.2859 20.9289 12.6765L26.5858 18.3333L20.9289 23.9902C20.5384 24.3807 20.5384 25.0139 20.9289 25.4044C21.3195 25.7949 21.9526 25.7949 22.3431 25.4044L28.7071 19.0404ZM8 18.3333L8 19.3333L28 19.3333L28 18.3333L28 17.3333L8 17.3333L8 18.3333Z" fill="#2C4AA2"/>
</svg>
