<svg width="56" height="46" viewBox="0 0 56 46" fill="none" xmlns="http://www.w3.org/2000/svg">
<path d="M39.9456 11.9977C40.8968 11.3578 41.5309 11.2779 41.848 11.7577C42.165 12.2376 41.9272 12.8774 41.1346 13.6772C33.7628 21.3552 28.2934 25.674 25.202 29.273C23.7752 30.8726 24.1716 32.4722 26.391 34.0718L41.1346 44.1491C47.0795 48.228 48.9819 44.8689 49.6953 40.79C52.3904 26.2339 54.2928 14.1571 55.4025 4.55966C55.8781 0.960622 54.6891 -0.958864 50.1709 0.48075C45.8905 1.76041 30.5129 8.23867 4.03794 19.9155C-0.955841 21.835 -0.0046451 23.9945 2.84894 24.9542C5.70253 25.9139 7.84272 26.6337 10.6963 27.3536C13.5499 28.0734 15.4523 28.3133 18.7815 26.1539" fill="white"/>
</svg>
