<svg width="33" height="23" viewBox="0 0 33 23" fill="none" xmlns="http://www.w3.org/2000/svg">
<g clip-path="url(#clip0_1_1098)">
<path d="M0 0.166992H33V22.167H0V0.166992Z" fill="white"/>
<path d="M0 0.166992H33V1.85881H0V0.166992ZM0 3.55062H33V5.24243H0V3.55062ZM0 6.93424H33V8.62606H0V6.93424ZM0 10.3179H33V12.0097H0V10.3179ZM0 13.7079H33V15.3997H0V13.7079ZM0 17.0916H33V18.7834H0V17.0916ZM0 20.4752H33V22.167H0V20.4752Z" fill="#D80027"/>
<path d="M0 0.166992H16.5V12.0097H0V0.166992Z" fill="#2E52B2"/>
<path d="M3.07478 9.10206L2.81747 8.27867L2.53443 9.10206H1.6853L2.37361 9.59738L2.1163 10.4208L2.81747 9.91259L3.49934 10.4208L3.2356 9.59738L3.93676 9.10206H3.07478ZM6.69641 9.10206L6.43267 8.27867L6.1625 9.10206H5.31337L6.00168 9.59738L5.74437 10.4208L6.43267 9.91259L7.12741 10.4208L6.8701 9.59738L7.5584 9.10206H6.69641ZM10.3309 9.10206L10.0543 8.27867L9.797 9.10206H8.92858L9.63618 9.59738L9.36601 10.4208L10.0543 9.91259L10.7619 10.4208L10.4917 9.59738L11.18 9.10206H10.3309ZM13.9461 9.10206L13.6888 8.27867L13.4186 9.10206H12.5631L13.2578 9.59738L13.0005 10.4208L13.6888 9.91259L14.3835 10.4208L14.1069 9.59738L14.8145 9.10206H13.9461ZM6.43267 5.01083L6.1625 5.83422H5.31337L6.00168 6.34241L5.74437 7.15294L6.43267 6.65118L7.12741 7.15294L6.8701 6.34241L7.5584 5.83422H6.69641L6.43267 5.01083ZM2.81747 5.01083L2.53443 5.83422H1.6853L2.37361 6.34241L2.1163 7.15294L2.81747 6.65118L3.49934 7.15294L3.2356 6.34241L3.93676 5.83422H3.07478L2.81747 5.01083ZM10.0543 5.01083L9.797 5.83422H8.92858L9.63618 6.34241L9.36601 7.15294L10.0543 6.65118L10.7619 7.15294L10.4917 6.34241L11.18 5.83422H10.3309L10.0543 5.01083ZM13.6888 5.01083L13.4186 5.83422H12.5631L13.2578 6.34241L13.0005 7.15294L13.6888 6.65118L14.3835 7.15294L14.1069 6.34241L14.8145 5.83422H13.9461L13.6888 5.01083ZM2.81747 1.75586L2.53443 2.56639H1.6853L2.37361 3.07457L2.1163 3.89153L2.81747 3.38334L3.49934 3.89153L3.2356 3.07457L3.93676 2.56639H3.07478L2.81747 1.75586ZM6.43267 1.75586L6.1625 2.56639H5.31337L6.00168 3.07457L5.74437 3.89153L6.43267 3.38334L7.12741 3.89153L6.8701 3.07457L7.5584 2.56639H6.69641L6.43267 1.75586ZM10.0543 1.75586L9.797 2.56639H8.92858L9.63618 3.07457L9.36601 3.89153L10.0543 3.38334L10.7619 3.89153L10.4917 3.07457L11.18 2.56639H10.3309L10.0543 1.75586ZM13.6888 1.75586L13.4186 2.56639H12.5631L13.2578 3.07457L13.0005 3.89153L13.6888 3.38334L14.3835 3.89153L14.1069 3.07457L14.8145 2.56639H13.9461L13.6888 1.75586Z" fill="white"/>
</g>
<defs>
<clipPath id="clip0_1_1098">
<rect y="0.166992" width="33" height="22" rx="3" fill="white"/>
</clipPath>
</defs>
</svg>
